<svg xmlns="http://www.w3.org/2000/svg" style="display:none">
  <symbol id="cash-outline" viewBox="0 0 512 512">
    <rect x="32" y="80" width="448" height="256" rx="16" ry="16" transform="rotate(180 256 208)" fill="none" stroke="currentColor" stroke-linejoin="round" stroke-width="32"/>
    <path fill="none" stroke="currentColor" stroke-linecap="round" stroke-linejoin="round" stroke-width="32" d="M64 384h384M96 432h320"/>
    <circle cx="256" cy="208" r="80" fill="none" stroke="currentColor" stroke-linecap="round" stroke-linejoin="round" stroke-width="32"/>
    <path d="M480 160a80 80 0 01-80-80M32 160a80 80 0 0080-80M480 256a80 80 0 00-80 80M32 256a80 80 0 0180 80" fill="none" stroke="currentColor" stroke-linecap="round" stroke-linejoin="round" stroke-width="32"/>
  </symbol>
  <symbol id="alert-circle-outline" viewBox="0 0 512 512">
    <path d="M256 48C141.31 48 48 141.31 48 256s93.31 208 208 208 208-93.31 208-208S370.69 48 256 48z" fill="none" stroke="currentColor" stroke-miterlimit="10" stroke-width="32"/>
    <path d="M256 144v144" fill="none" stroke="currentColor" stroke-linecap="round" stroke-linejoin="round" stroke-width="32"/>
    <path d="M256 368h.01" fill="none" stroke="currentColor" stroke-linecap="round" stroke-linejoin="round" stroke-width="44"/>
  </symbol>
  <symbol id="chatbubble-outline" viewBox="0 0 512 512">
    <path d="M87.49 380c1.19-4.38-1.44-10.47-3.95-14.86a44.86 44.86 0 00-2.54-3.8 199.81 199.81 0 01-33-110C47.65 139.09 140.73 48 255.83 48 356.21 48 440 117.54 459.58 209.85a199 199 0 014.42 41.64c0 112.41-89.49 204.93-204.59 204.93-18.3 0-43-4.6-56.47-8.37s-26.92-8.77-30.39-10.11a31.09 31.09 0 00-11.12-2.07 30.71 30.71 0 00-12.09 2.43l-67.83 24.48a16 16 0 01-4.67 1.22 9.6 9.6 0 01-9.57-9.74 15.85 15.85 0 01.6-3.29z" fill="none" stroke="currentColor" stroke-linecap="round" stroke-miterlimit="10" stroke-width="32"/>
  </symbol>
  <symbol id="chatbubbles-outline" viewBox="0 0 512 512">
    <path d="M431 320.6c-1-3.6 1.2-8.6 3.3-12.2a33.68 33.68 0 012.1-3.1A162 162 0 00464 215c.3-92.2-77.5-167-173.7-167-83.9 0-153.9 57.1-170.3 132.9a160.7 160.7 0 00-3.7 34.2c0 92.3 74.8 169.1 171 169.1 15.3 0 35.9-4.6 47.2-7.7s22.5-7.2 25.4-8.3a26.44 26.44 0 019.3-1.7 26 26 0 0110.1 2l56.7 20.1a13.52 13.52 0 003.9 1 8 8 0 008-8 12.85 12.85 0 00-.5-2.7z" fill="none" stroke="currentColor" stroke-linecap="round" stroke-miterlimit="10" stroke-width="32"/>
    <path d="M66.46 232a146.23 146.23 0 006.39 152.67c2.31 3.49 3.61 6.19 3.21 8s-11.93 61.87-11.93 61.87a8 8 0 002.71 7.68A8.17 8.17 0 0072 464a7.26 7.26 0 002.91-.6l56.21-22a15.7 15.7 0 0112 .2c18.94 7.38 39.88 12 60.83 12A159.21 159.21 0 00284 432.11" fill="none" stroke="currentColor" stroke-linecap="round" stroke-miterlimit="10" stroke-width="32"/>
  </symbol>
  <symbol id="checkmark-done-outline" viewBox="0 0 512 512">
    <path fill="none" stroke="currentColor" stroke-linecap="round" stroke-linejoin="round" stroke-width="32" d="M464 128L240 384l-96-96M144 384l-96-96M368 128L232 284"/>
  </symbol>
  <symbol id="copy-outline" viewBox="0 0 512 512">
    <rect x="128" y="128" width="336" height="336" rx="48" ry="48" fill="none" stroke="currentColor" stroke-linejoin="round" stroke-width="32"/>
    <path d="M384 128v-24a56.16 56.16 0 00-56-56H104a56.16 56.16 0 00-56 56v224a56.16 56.16 0 0056 56h24" fill="none" stroke="currentColor" stroke-linecap="round" stroke-linejoin="round" stroke-width="32"/>
  </symbol>
  <symbol id="gift-outline" viewBox="0 0 512 512">
    <rect x="64" y="192" width="384" height="256" rx="32" ry="32" fill="none" stroke="currentColor" stroke-linecap="round" stroke-linejoin="round" stroke-width="32"/>
    <path d="M256 192v256M448 192H64M112 192v-40a40 40 0 0140-40h208a40 40 0 0140 40v40" fill="none" stroke="currentColor" stroke-linecap="round" stroke-linejoin="round" stroke-width="32"/>
    <path d="M256 112s-20.8-64-72-64c-26.5 0-48 21.5-48 48s21.5 48 48 48h72M256 112s20.8-64 72-64c26.5 0 48 21.5 48 48s-21.5 48-48 48h-72" fill="none" stroke="currentColor" stroke-linecap="round" stroke-linejoin="round" stroke-width="32"/>
  </symbol>
  <symbol id="chevron-back-outline" viewBox="0 0 512 512">
    <path fill="none" stroke="currentColor" stroke-linecap="round" stroke-linejoin="round" stroke-width="48" d="M328 112L184 256l144 144"/>
  </symbol>
  <symbol id="code-download" viewBox="0 0 512 512">
    <path fill="none" stroke="currentColor" stroke-linecap="round" stroke-linejoin="round" stroke-width="42" d="M160 368L32 256l128-112M352 368l128-112-128-112M192 288.1l64 63.9 64-63.9M256 160v176.03"/>
  </symbol>
  <symbol id="information-outline" viewBox="0 0 512 512">
    <path fill="none" stroke="currentColor" stroke-linecap="round" stroke-linejoin="round" stroke-width="40" d="M196 220h64v172"/>
    <path fill="none" stroke="currentColor" stroke-linecap="round" stroke-miterlimit="10" stroke-width="40" d="M187 396h138"/>
    <path d="M256 160a32 32 0 1132-32 32 32 0 01-32 32z"/>
  </symbol>
  <symbol id="lock-closed-outline" viewBox="0 0 512 512">
    <rect x="80" y="192" width="352" height="272" rx="48" ry="48" fill="none" stroke="currentColor" stroke-linecap="round" stroke-linejoin="round" stroke-width="32"/>
    <path d="M144 192v-72a112 112 0 01224 0v72" fill="none" stroke="currentColor" stroke-linecap="round" stroke-linejoin="round" stroke-width="32"/>
  </symbol>
  <symbol id="menu-outline" viewBox="0 0 512 512">
    <path fill="none" stroke="currentColor" stroke-linecap="round" stroke-miterlimit="10" stroke-width="32" d="M80 160h352M80 256h352M80 352h352"/>
  </symbol>
  <symbol id="open-outline" viewBox="0 0 512 512">
    <path d="M384 320v96a32 32 0 01-32 32H96a32 32 0 01-32-32V160a32 32 0 0132-32h96M288 64h160v160M448 64L224 288" fill="none" stroke="currentColor" stroke-linecap="round" stroke-linejoin="round" stroke-width="32"/>
  </symbol>
  <symbol id="people-circle-outline" viewBox="0 0 512 512">
    <path d="M256 464c-114.69 0-208-93.31-208-208S141.31 48 256 48s208 93.31 208 208-93.31 208-208 208zm0-384c-97 0-176 79-176 176s79 176 176 176 176-78.95 176-176S353.05 80 256 80z"/>
    <path d="M323.67 292c-17.4 0-34.21-7.72-47.34-21.73a83.76 83.76 0 01-22-51.32c-1.47-20.7 4.88-39.75 17.88-53.62S303.38 144 323.67 144c20.14 0 38.37 7.62 51.33 21.46s19.47 33 18 53.51a84 84 0 01-22 51.3C357.86 284.28 341.06 292 323.67 292zm55.81-74zM163.82 295.36c-29.76 0-55.93-27.51-58.33-61.33-1.23-17.32 4.15-33.33 15.17-45.08s26.22-18 43.15-18 32.12 6.44 43.07 18.14 16.5 27.82 15.25 45c-2.44 33.77-28.6 61.27-58.31 61.27zM420.37 355.28c-1.59-4.7-5.46-9.71-13.22-14.46-23.46-14.33-52.32-21.91-83.48-21.91-30.57 0-60.23 7.9-83.53 22.25-26.25 16.17-43.89 39.75-51 68.18-1.68 6.69-4.13 19.14-1.51 26.11a192.18 192.18 0 00232.75-80.17zM163.63 401.37c7.07-28.21 22.12-51.73 45.47-70.75a8 8 0 00-2.59-13.77c-12-3.83-25.7-5.88-42.69-5.88-23.82 0-49.11 6.45-68.14 18.17-5.4 3.33-10.7 4.61-14.78 5.75a192.84 192.84 0 0077.78 86.64l1.79-.14a102.82 102.82 0 013.16-20.02z"/>
  </symbol>
  <symbol id="person-circle-outline" viewBox="0 0 512 512">
    <path d="M344 144c-3.92 52.87-43.87 96-88 96s-84.08-43.13-88-96c-4-55 35.55-96 88-96s92 42 88 96z" fill="none" stroke="currentColor" stroke-linecap="round" stroke-linejoin="round" stroke-width="32"/>
    <path d="M256 304c-87 0-160 44.88-160 100v16a16 16 0 0016 16h288a16 16 0 0016-16v-16c0-55.12-73-100-160-100z" fill="none" stroke="currentColor" stroke-miterlimit="10" stroke-width="32"/>
  </symbol>
  <symbol id="pencil-outline" viewBox="0 0 512 512">
    <path fill="none" stroke="currentColor" stroke-linecap="round" stroke-linejoin="round" stroke-width="32" d="M364.13 125.25L87 403l-23 45 44.99-23 277.76-277.13-22.62-22.62zM420.69 68.69l-22.62 22.62 22.62 22.63 22.62-22.63a16 16 0 000-22.62h0a16 16 0 00-22.62 0z"/>
  </symbol>
  <symbol id="pin-outline" viewBox="0 0 512 512">
    <circle cx="256" cy="96" r="64" fill="none" stroke="currentColor" stroke-linecap="round" stroke-linejoin="round" stroke-width="32"/>
    <path d="M272 164a9 9 0 00-9-9h-14a9 9 0 00-9 9v293.56a32.09 32.09 0 002.49 12.38l10.07 24a3.92 3.92 0 006.88 0l10.07-24a32.09 32.09 0 002.49-12.38z"/>
    <circle cx="280" cy="72" r="24"/>
  </symbol>
  <symbol id="receipt-outline" viewBox="0 0 512 512">
    <path d="M160 336h192M160 256h192M160 176h192" fill="none" stroke="currentColor" stroke-linecap="round" stroke-linejoin="round" stroke-width="32"/>
    <path d="M392 448l-32-32-32 32-32-32-32 32-32-32-32 32-32-32-32 32V80a16 16 0 0116-16h240a16 16 0 0116 16z" fill="none" stroke="currentColor" stroke-linecap="round" stroke-linejoin="round" stroke-width="32"/>
  </symbol>
  <symbol id="settings-outline" viewBox="0 0 512 512">
    <path d="M262.29 192.31a64 64 0 1057.4 57.4 64.13 64.13 0 00-57.4-57.4zM416.39 256a154.34 154.34 0 01-1.53 20.79l45.21 35.46a10.81 10.81 0 012.45 13.75l-42.77 74a10.81 10.81 0 01-13.14 4.59l-44.9-18.08a16.11 16.11 0 00-15.17 1.75A164.48 164.48 0 01325 400.8a15.94 15.94 0 00-8.82 12.14l-6.73 47.89a11.08 11.08 0 01-10.68 9.17h-85.54a11.11 11.11 0 01-10.69-8.87l-6.72-47.82a16.07 16.07 0 00-9-12.22 155.3 155.3 0 01-21.46-12.57 16 16 0 00-15.11-1.71l-44.89 18.07a10.81 10.81 0 01-13.14-4.58l-42.77-74a10.8 10.8 0 012.45-13.75l38.21-30a16.05 16.05 0 006-14.08c-.36-4.17-.58-8.33-.58-12.5s.21-8.27.58-12.35a16 16 0 00-6.07-13.94l-38.19-30A10.81 10.81 0 0149.48 186l42.77-74a10.81 10.81 0 0113.14-4.59l44.9 18.08a16.11 16.11 0 0015.17-1.75A164.48 164.48 0 01187 111.2a15.94 15.94 0 008.82-12.14l6.73-47.89A11.08 11.08 0 01213.23 42h85.54a11.11 11.11 0 0110.69 8.87l6.72 47.82a16.07 16.07 0 009 12.22 155.3 155.3 0 0121.46 12.57 16 16 0 0015.11 1.71l44.89-18.07a10.81 10.81 0 0113.14 4.58l42.77 74a10.8 10.8 0 01-2.45 13.75l-38.21 30a16.05 16.05 0 00-6.05 14.08c.33 4.14.55 8.3.55 12.47z" fill="none" stroke="currentColor" stroke-linecap="round" stroke-linejoin="round" stroke-width="32"/>
  </symbol>
  <symbol id="share-social-outline" viewBox="0 0 512 512">
    <circle cx="128" cy="256" r="48" fill="none" stroke="currentColor" stroke-linecap="round" stroke-linejoin="round" stroke-width="32"/>
    <circle cx="384" cy="112" r="48" fill="none" stroke="currentColor" stroke-linecap="round" stroke-linejoin="round" stroke-width="32"/>
    <circle cx="384" cy="400" r="48" fill="none" stroke="currentColor" stroke-linecap="round" stroke-linejoin="round" stroke-width="32"/>
    <path d="M169.83 232.59l172.34-97.18M169.83 279.41l172.34 97.18" fill="none" stroke="currentColor" stroke-linecap="round" stroke-linejoin="round" stroke-width="32"/>
  </symbol>
  <symbol id="stats-chart" viewBox="0 0 512 512">
    <path d="M104 496H72a24 24 0 01-24-24V328a24 24 0 0124-24h32a24 24 0 0124 24v144a24 24 0 01-24 24zM328 496h-32a24 24 0 01-24-24V232a24 24 0 0124-24h32a24 24 0 0124 24v240a24 24 0 01-24 24zM440 496h-32a24 24 0 01-24-24V120a24 24 0 0124-24h32a24 24 0 0124 24v352a24 24 0 01-24 24zM216 496h-32a24 24 0 01-24-24V40a24 24 0 0124-24h32a24 24 0 0124 24v432a24 24 0 01-24 24z"/>
  </symbol>
  <symbol id="star-outline" viewBox="0 0 512 512">
    <path d="M463 192l-101.85-14.8-45.54-92.25a33.6 33.6 0 00-60.22 0l-45.54 92.25L108 192a33.6 33.6 0 00-18.63 57.29l73.7 71.84-17.39 101.43a33.6 33.6 0 0048.75 35.42L285.5 410.1l91.07 47.88a33.6 33.6 0 0048.75-35.42l-17.39-101.43 73.7-71.84A33.6 33.6 0 00463 192z" fill="none" stroke="currentColor" stroke-linecap="round" stroke-linejoin="round" stroke-width="32"/>
  </symbol>
  <symbol id="swap-horizontal-outline" viewBox="0 0 512 512">
    <path fill="none" stroke="currentColor" stroke-linecap="round" stroke-linejoin="round" stroke-width="32" d="M304 48l112 112-112 112M398.87 160H96M208 464L96 352l112-112M114 352h302"/>
  </symbol>
  <symbol id="sync" viewBox="0 0 512 512">
    <path d="M434.67 285.59v-29.8c0-98.73-80.24-178.79-179.2-178.79a179 179 0 00-140.14 67.36m-38.53 82v29.8C76.8 355 157 435 256 435a180.45 180.45 0 00140-66.92" fill="none" stroke="currentColor" stroke-linecap="round" stroke-linejoin="round" stroke-width="32"/>
    <path fill="none" stroke="currentColor" stroke-linecap="round" stroke-linejoin="round" stroke-width="32" d="M32 256l44-44 46 44M480 256l-44 44-46-44"/>
  </symbol>
  <symbol id="trash-outline" viewBox="0 0 512 512">
    <path d="M112 112l20 320c.95 18.49 14.4 32 32 32h184c17.67 0 30.87-13.51 32-32l20-320" fill="none" stroke="currentColor" stroke-linecap="round" stroke-linejoin="round" stroke-width="32"/>
    <path d="M80 112h352" fill="none" stroke="currentColor" stroke-linecap="round" stroke-miterlimit="10" stroke-width="32"/>
    <path d="M192 112V72h0a23.93 23.93 0 0124-24h80a23.93 23.93 0 0124 24h0v40M256 176v224M184 176l8 224M328 176l-8 224" fill="none" stroke="currentColor" stroke-linecap="round" stroke-linejoin="round" stroke-width="32"/>
  </symbol>
  <symbol id="wallet-outline" viewBox="0 0 512 512">
    <rect x="48" y="144" width="416" height="288" rx="48" ry="48" fill="none" stroke="currentColor" stroke-linejoin="round" stroke-width="32"/>
    <path d="M411.36 144v-30A50 50 0 00352 64.9L88.64 109.85A50 50 0 0048 159v49" fill="none" stroke="currentColor" stroke-linejoin="round" stroke-width="32"/>
    <path d="M368 320a32 32 0 1132-32 32 32 0 01-32 32z"/>
  </symbol>
</svg>
